<svg width="258" height="243" viewBox="0 0 258 243" fill="none" xmlns="http://www.w3.org/2000/svg">
<path d="M60.7548 0.964737C55.2619 2.23099 48.7703 5.78856 43.3329 10.4918C35.8426 16.9436 35.6206 17.0642 24.9123 17.4863C15.9239 17.8481 15.5355 17.9084 12.04 19.7776C7.49032 22.2498 3.27355 27.0737 1.83096 31.4754C0.3329 36.2389 0.554836 44.1982 2.3858 50.3486C4.77161 58.3682 9.2658 65.4834 14.9252 70.3072C23.9135 78.0253 37.5626 82.6079 51.489 82.6079H57.8697L56.3716 84.5374C48.271 95.4513 43.9987 105.762 41.5019 120.596C40.4477 126.806 40.2813 130.786 39.9484 158.583C39.56 191.687 39.449 192.893 36.5639 199.405C33.8452 205.555 27.4645 209.354 17.7548 210.62C10.6529 211.585 7.87871 212.731 4.77161 216.228C1.72 219.665 0.388384 223.162 0.665803 227.021C0.998707 231.182 2.66322 233.955 6.82451 236.97C11.3742 240.287 16.5897 241.493 24.6348 241.01C39.1161 240.106 53.32 233.533 66.4697 221.655C68.689 219.604 70.6865 217.976 70.9639 217.976C71.1858 217.976 72.9613 220.027 74.8477 222.619C81.2284 231.242 93.6013 242.699 96.0981 242.276C96.9303 242.156 97.4297 241.613 97.5406 240.769C97.6516 239.804 96.5974 238.478 92.5471 234.98C86.9432 230.157 79.009 221.474 75.9019 216.831L73.96 213.936L77.6774 208.51C85.7781 196.812 91.5484 181.074 91.5484 170.703C91.5484 160.754 86.2219 153.518 78.3432 152.734C70.52 151.95 63.0852 159.608 60.9768 170.643C60.5884 172.753 60.4219 177.275 60.6439 183.004C60.9768 193.857 62.0865 199.103 65.9148 207.605L68.5781 213.454L66.5806 215.504C55.4839 226.961 41.0581 234.558 26.7987 236.488C15.8684 237.935 6.15871 234.016 4.66064 227.624C3.7729 223.705 8.26709 217.253 12.7613 215.987C14.1484 215.625 17.0335 215.142 19.1419 214.962C26.9097 214.178 35.0103 209.836 38.6168 204.47C40.7806 201.153 42.5561 195.485 43.2774 189.335C43.5548 186.863 43.8323 173.899 43.8323 160.633C43.8323 135.61 44.2206 127.771 46.0516 118.485C48.7703 104.556 54.3742 92.9188 62.5858 84.236C64.6387 82.0049 65.8594 81.2211 67.5239 80.9799C69.7432 80.6784 69.7987 80.6784 70.4645 82.9697C71.7961 87.5523 75.7355 95.0293 78.2877 97.803C86.3884 106.667 100.703 101.843 106.695 88.1553L108.526 84.1154L110.357 88.9392C116.627 104.978 126.836 119.028 138.432 127.59C141.206 129.58 146.866 133.379 151.083 136.032C162.79 143.267 168.782 149.297 174.219 159.246C177.493 165.216 182.098 178.481 180.933 178.481C179.768 178.481 168.56 175.828 157.852 172.994C146.533 169.979 146.034 169.919 139.819 170.16C134.437 170.401 132.717 170.763 128.723 172.391C119.568 176.069 112.743 182.823 109.803 190.963C108.083 195.787 107.75 203.987 109.026 210.138C110.135 215.625 113.853 223.946 117.348 228.649C121.732 234.558 128.834 239.684 135.214 241.553C139.597 242.819 148.586 242.759 153.135 241.493C164.676 238.236 175.606 229.614 181.044 219.604C185.705 210.982 187.203 203.927 186.87 191.928L186.703 183.968L188.923 184.391C190.143 184.632 195.525 184.813 200.852 184.813C211.893 184.813 215.499 184.089 223.711 180.29C232.034 176.431 242.908 167.567 249.4 159.427C257.778 148.875 258.943 146.463 255.725 146.041C254.505 145.86 253.783 146.524 251.342 149.9C243.297 161.055 233.698 169.979 224.488 174.864C213.89 180.532 204.403 181.858 188.812 179.868L185.926 179.506L185.039 176.13C183.596 170.341 180.267 161.779 177.493 156.714C171.556 145.86 165.342 139.529 153.579 132.354C144.369 126.746 140.263 123.791 135.381 119.209C125.449 110.043 117.459 97.2603 112.41 82.427L110.413 76.5781L110.746 64.0362C111.301 46.0675 109.914 37.4449 104.754 26.2898C101.646 19.5365 99.76 16.6422 94.8774 11.3963C86 1.8089 73.6826 -1.92957 60.7548 0.964737ZM78.2323 5.78856C88.4413 9.04463 95.9316 16.5819 101.591 29.2444C103.034 32.5608 104.809 37.5655 105.419 40.3995C106.917 47.0322 107.361 57.8858 106.585 67.835C105.253 84.4169 102.035 91.9541 94.6 95.9337C89.9948 98.3456 86.111 98.5868 83.1148 96.597C78.5097 93.4615 73.7381 81.9446 71.1303 67.4732C69.5213 58.7903 68.8555 57.2829 66.9135 58.0667C65.6929 58.6094 65.7484 61.2022 67.191 69.1012C67.8013 72.6588 68.1342 75.734 67.8568 76.0355C67.0245 76.9399 56.9819 78.3871 51.5445 78.3871C44.831 78.3871 38.4503 77.1811 31.3484 74.5883C24.5794 72.0558 22.3045 70.8499 18.0323 67.3526C8.26709 59.2727 2.60774 43.3541 5.88129 32.9828C6.99097 29.365 10.3755 25.6265 14.3148 23.6367C17.2 22.1895 18.3097 22.0087 26.3548 21.7072C37.0077 21.2851 38.2839 20.8027 45.7187 14.2302C52.3213 8.44165 56.0387 6.51213 63.529 4.88409C67.1355 4.10022 74.4039 4.52231 78.2323 5.78856ZM80.3406 157.739C89.551 161.899 89.8839 174.381 81.2839 193.254C77.8439 200.792 72.7394 209.233 71.6297 209.233C70.7974 209.233 67.9123 202.299 66.2477 196.269C64.9161 191.385 64.7497 189.878 64.6942 181.195C64.6387 173.356 64.8052 170.944 65.6374 168.412C67.08 163.889 69.9097 160.211 73.3497 158.342C76.6787 156.533 77.511 156.473 80.3406 157.739ZM157.852 177.517C163.345 179.024 171.057 180.954 174.996 181.798C178.991 182.642 182.32 183.486 182.486 183.667C182.653 183.848 182.819 188.25 182.819 193.435C182.819 201.696 182.653 203.505 181.543 207.424C178.935 216.288 175.274 222.378 169.226 227.624C156.853 238.478 141.928 241.07 130.165 234.438C125.56 231.785 119.068 224.609 116.35 219.062C112.688 211.585 111.245 202.6 112.632 196.088C114.241 188.732 119.457 181.979 126.559 178.3C135.991 173.356 142.205 173.175 157.852 177.517Z" fill="black"/>
</svg>
